<svg xmlns="http://www.w3.org/2000/svg" viewBox="0 0 64 64" width="64" height="64">
  <defs>
    <linearGradient id="d" x1="0" y1="0" x2="1" y2="1"><stop offset="0" stop-color="#1c9fa3"/><stop offset="1" stop-color="#22c1cc"/></linearGradient>
    <linearGradient id="t" x1="0" y1="0" x2="1" y2="1"><stop offset="0" stop-color="#1f8f95"/><stop offset="1" stop-color="#136f76"/></linearGradient>
    <clipPath id="c"><circle cx="27" cy="33" r="22"/></clipPath>
    <path id="p" d="M30 20 C 31 14 38 12 42 17 C 46 12 54 14 55 21 C 57 27 54 32 53 38 C 52 44 51 51 48 52 C 45 54 44 46 42 41 C 41 38 39 38 38 41 C 36 46 35 54 32 52 C 29 51 30 44 29 37 C 28 31 28 25 30 20 Z"/>
  </defs>
  <rect width="64" height="64" rx="14" fill="#ffffff"/>
  <circle cx="27" cy="33" r="24.5" fill="none" stroke="#3f86d6" stroke-width="1.6"/>
  <circle cx="27" cy="33" r="22" fill="url(#d)"/>
  <g fill="none" stroke-linecap="round" stroke-linejoin="round" stroke-width="3.2">
    <use href="#p" stroke="url(#t)"/>
    <use href="#p" stroke="#ffffff" clip-path="url(#c)"/>
  </g>
</svg>
